<svg xmlns="http://www.w3.org/2000/svg" viewBox="0 0 1186.82 651.48"><defs></defs><title>Snap! Logo</title><path style="fill:#e6ad1b" d="M420.74,649.58c-6.57-2.7-9.51-4.5-15.39-9.39-12.62-10.51-25.11-34.88-29.8-58.19-2.85-14.13.44-12.58-28.2-13.33-50.79-1.33-84.61-7.55-111.25-20.46-20.83-10.1-39.2-29.33-51.53-54C168.92,463,156.73,412.32,149,346.5c-2.72-23.24-2.93-24.5-4-24.5-0.5,0-1.41,1.91-2,4.25-3.45,13.37-15.07,39-42,92.71-31.22,62.27-42.32,89.68-45.45,112.27-0.36,2.6-1,4.92-1.35,5.15-0.88.54-53.1-4.95-53.8-5.65-1-1,1.85-13.44,5.29-22.73,7.26-19.58,25.81-55.3,48-92.5,4.93-8.25,18.1-30.08,29.26-48.5,24.34-40.17,41-68.94,48.46-83.9l5.53-11-1-10.28c-3.81-37.93-10.82-60.89-21.66-70.95-6.12-5.68-13-9.28-23.14-12.08-6.52-1.8-10.48-2.12-26.65-2.16-12.31,0-21.06.42-24.86,1.28s-6.21,1-6.81.37c-1.25-1.25,2.94-39.31,4.51-40.92C41,133.52,76.1,129.76,95,131.13c14,1,22.4,3,32.38,7.74,14.43,6.83,22.28,16,29.52,34.52,8.05,20.6,12.47,42.91,18.62,94.08C188.22,373,207.82,438.87,238.93,480.4c11.79,15.74,20.95,25.31,33,34.52,14.65,11.17,21.62,15.34,30,18,14.43,4.54,22.76,5.35,61.5,6l37,0.61,0.66,10.57c2.08,33.46,14.55,63.77,29.17,70.85,4.26,2.06,5.19,2.08,88.74,2.06,96,0,88.59.65,97-8.75,10.74-11.94,18.48-35.2,20.9-62.77,0.57-6.54,1.39-12.25,1.82-12.68s55.21-.67,121.73-0.53L881.5,538.5v29l-108,.5-108,.5-0.86,4.5c-7.77,40.72-25,68.55-47.36,76.68L610.91,652l-92.2,0-92.2,0-5.76-2.37h0Zm534.7-82.88c-0.28-.72-0.38-7.36-0.22-14.76l0.28-13.45h161v29l-80.28.26c-65.33.21-80.37,0-80.78-1.05h0ZM873.37,191.88c-29.5-3.1-65.58-18.68-135.37-58.45-88.64-50.51-120.92-65.52-163.5-76-23.45-5.78-33.95-6.81-69-6.75-50.62.08-85.4,5-120.55,17.21-33.31,11.53-57.44,25.4-99.09,57C238.12,161,212,178.17,212,173.25c0-2.32,5.45-20.5,8.52-28.46C247.42,75.08,320,26.45,424.53,8.11,447.81,4,464.6,2.23,490.77,1c80-3.66,135.42,12,212.73,60,7.7,4.78,29.08,18.59,47.5,30.68,49.07,32.21,73.89,46.64,100.22,58.26a320.69,320.69,0,0,0,72.28,22.52c8.21,1.52,12,2.64,12,3.56,0,2.14-12,8.86-21.41,12-8.13,2.72-22.79,5.12-29.59,4.84-1.65-.07-6.66-0.51-11.13-1h0Z" transform="translate(-0.18 -0.52)"/><path style="fill:#496ad5" d="M897.55,573.08c-0.33-.53-0.13-7.17.44-14.77,2.56-34.37,3.16-52.9,3.69-112.81,0.55-62-.23-99.18-2.76-132-1.37-17.71-4.58-46-6.51-57.36-1.14-6.71-1.29-9.67-.51-10.44,1.06-1.06,39-6.85,40.21-6.13,0.33,0.2,1.14,3.87,1.79,8.15,1.78,11.67,2.17,13.28,3.2,13.28,0.52,0,3.92-2.45,7.55-5.44C959.9,243,977.8,237.27,1005,236.3c17.12-.61,27.43.74,40.46,5.29,24.8,8.67,46.31,32.71,56.52,63.19,4.37,13,6.12,24.74,6.16,41.22,0.07,27.64-5,49.15-16.82,71-15.24,28.2-36.08,45.63-63,52.66-8,2.08-13,2.68-26.19,3.1-25.54.82-44.06-2.64-54.72-10.22-2.72-1.94-5.57-3.52-6.33-3.52-1.16,0-1.28,5.8-.76,36.25,0.34,19.94.74,45.7,0.88,57.25l0.25,21-21.68.27c-13,.16-21.91-0.11-22.27-0.69h0Zm113.3-131.46c7.79-2.17,18.9-7.72,24.74-12.36,6.73-5.35,13.44-14.44,18.92-25.63,20.08-41,13-94.53-15.95-120.32-11.14-9.93-24.61-14.48-42.78-14.43-23.41.06-38.87,5.41-51.83,17.91l-7,6.71,1,19.5c0.53,10.73,1.47,40.65,2.08,66.5s1.28,47.54,1.49,48.21c1.31,4.19,18.61,12.39,31.14,14.76,9.53,1.8,30.3,1.34,38.18-.85h0ZM331,474c-20.76-1.35-52.35-6.93-55.17-9.74-0.53-.53.68-8,3-18.31l3.87-17.42,2.91,0.08c1.6,0,7,1.3,11.91,2.79,30.12,9.06,62.64,11.6,91,7.11,30.43-4.82,46.62-17.84,48.2-38.75,1.5-19.85-8.94-36-32.14-49.67-6-3.54-22.83-12-37.41-18.76C338,317.74,329.68,313.42,317,305.18c-10-6.5-23.13-19.42-27.82-27.38-7.36-12.47-10.8-28-9.84-44.3,2.22-37.82,26.36-63.49,68.67-73,10.17-2.29,52.91-3.17,73.28-1.51,15.28,1.25,32.29,4.21,34,5.92,0.64,0.64.07,6.89-1.65,18C452.18,192.25,451,200.38,451,201c0,1.47-3.65,1.28-9.5-.5-25.4-7.72-70-10.93-91-6.56-16.75,3.48-26.21,9.7-31.71,20.88-3,6.15-3.29,7.46-3.29,16.23s0.27,10.09,3.26,16.17C325.5,260.86,337.86,269,381,288c52.78,23.26,76.59,42,87.47,68.77,7,17.15,7.41,42.82,1.07,61.71q-12.67,37.74-62,50.51c-17.92,4.63-50,6.73-76.5,5h0Zm412.5-2.4c-14.62-2.9-25.27-8.39-35.1-18.08-11.54-11.38-15.9-23-15.77-42,0.12-17.78,4.74-31.41,14.83-43.8,18.68-22.93,51.22-33.88,108.59-36.53,9.65-.45,18.09-1.14,18.75-1.55,1.76-1.09,1.52-20.65-.36-28.61-4.45-18.88-17-27.11-45.84-30-18.28-1.84-54.34,1.19-76.64,6.45-9.87,2.33-9.34,2.74-8.52-6.7,0.4-4.54,1.24-11.85,1.89-16.25l1.17-8,7-1.77a319.93,319.93,0,0,1,40-6.77c17.89-1.77,49.46-1.55,60,.43,27.05,5.07,44.31,15.78,52.81,32.77,7.95,15.88,9.33,28.57,7.8,71.57-2,55.43-1.29,81.34,2.88,109.77,1,7.15,1.56,13.35,1.14,13.77s-8.71,1.06-18.41,1.41l-17.65.64L841,465.53a53.14,53.14,0,0,1-1.68-10.19c-0.34-4.07-1-7.62-1.4-7.89s-3.75,1.77-7.39,4.53c-6.74,5.1-19.28,11.62-27.73,14.41-16.14,5.33-45.59,7.91-59.3,5.19h0Zm61-35c10.58-2.68,24-8.83,29.07-13.36l3.07-2.72-0.57-31-0.57-31-16.6.15c-54,.48-82.45,14.55-86.79,43-1.75,11.47.35,19.64,6.89,26.73,4.42,4.79,10.87,8,20.41,10.21s32.5,1.19,45.1-2h0ZM487.57,466.11c-0.32-.51.09-15.48,0.9-33.27,4-87.46,2.94-122.5-5.1-170.69-1.84-11.06-2.26-15.66-1.47-16.44,1.29-1.29,39.31-6.83,40.25-5.87,0.36,0.36,1.39,5.39,2.3,11.16,2.36,15,2.6,16,3.66,16,0.52,0,3.82-2.36,7.32-5.25,12.23-10.07,28.64-18.64,42.65-22.27,15.21-3.94,39.83-3.72,56.42.5,19.23,4.9,34.28,15.68,41,29.39A101.93,101.93,0,0,1,681.26,285c2.24,8.5,2.24,8.54,2.24,95v86.5l-20.43.27c-11.24.15-20.78-.08-21.22-0.52s-0.15-9.56.63-20.28c3.86-53,4.46-126.73,1.14-139.73-3.25-12.73-11.27-23.9-20.62-28.74-14.61-7.55-35.54-9.07-55.49-4-8.45,2.14-24.9,10.49-32,16.24l-6,4.86V466.5l-20.68.27c-12,.16-20.92-0.12-21.26-0.66h0Zm626.93-1c-9.23-4.19-13.16-13.07-12.3-27.8,1.13-19.46,15.24-33.9,34.31-35.12,9.62-.61,15,1,20.14,6.15,5.31,5.31,6.71,10.31,6.19,22.23-0.34,7.74-.87,10.07-3.59,15.59-4.15,8.42-11.85,15.78-19.54,18.65-7.47,2.8-19.38,2.93-25.2.29h0Zm21.22-124.84c-1.14-2-1.76-109.53-.72-123.29,2.17-28.51,6.74-43.75,16-53.15q12-12.2,25.07-5.6c7.87,4,11,11.52,11,26.71,0,27-13.57,86.29-33.69,147l-2.81,8.5-7.17.29c-3.94.16-7.37-.06-7.62-0.5h0Z" transform="translate(-0.18 -0.52)"/></svg>